<svg width="336" height="100" viewBox="0 0 336 100" fill="none" xmlns="http://www.w3.org/2000/svg">
<rect width="100" height="100" rx="20" fill="#FF3332"/>
<path d="M149.813 77.8759C144.654 77.8759 140.25 76.7323 136.6 74.4449C132.95 72.1089 130.176 68.9456 128.278 64.9549C126.38 60.9643 125.431 56.4626 125.431 51.4499C125.431 46.4859 126.356 42.0086 128.205 38.0179C130.103 34.0273 132.877 30.8639 136.527 28.5279C140.177 26.1919 144.606 25.0239 149.813 25.0239C155.653 25.0239 160.398 26.4353 164.048 29.2579C167.747 32.0319 170.107 35.9253 171.129 40.9379H164.34C163.561 37.7746 161.955 35.2439 159.522 33.3459C157.137 31.3993 153.901 30.4259 149.813 30.4259C145.774 30.4259 142.416 31.3749 139.739 33.2729C137.062 35.1223 135.043 37.6286 133.68 40.7919C132.366 43.9553 131.709 47.5079 131.709 51.4499C131.709 55.4893 132.39 59.0906 133.753 62.2539C135.164 65.4173 137.208 67.9236 139.885 69.7729C142.562 71.5736 145.871 72.4739 149.813 72.4739C153.901 72.4739 157.137 71.5493 159.522 69.6999C161.955 67.8019 163.561 65.2956 164.34 62.1809H171.129C170.107 67.0963 167.747 70.9409 164.048 73.7149C160.398 76.4889 155.653 77.8759 149.813 77.8759Z" fill="white"/>
<path d="M178.117 76.9999V40.7919H183.665L184.176 47.7269C185.296 45.3423 186.999 43.4443 189.286 42.0329C191.574 40.6216 194.396 39.9159 197.754 39.9159V46.3399H196.075C192.085 46.3399 189.116 47.4106 187.169 49.5519C185.223 51.6933 184.249 54.7593 184.249 58.7499V76.9999H178.117Z" fill="white"/>
<path d="M215.222 77.8759C212.74 77.8759 210.477 77.4623 208.433 76.6349C206.389 75.8076 204.758 74.5666 203.542 72.9119C202.374 71.2086 201.79 69.1403 201.79 66.7069C201.79 63.8843 202.52 61.6456 203.98 59.9909C205.44 58.2876 207.362 57.0709 209.747 56.3409C212.18 55.5623 214.784 55.1729 217.558 55.1729H227.34C227.34 52.6423 226.902 50.6469 226.026 49.1869C225.198 47.7269 224.103 46.6806 222.741 46.0479C221.378 45.4153 219.869 45.0989 218.215 45.0989C215.83 45.0989 213.762 45.6829 212.01 46.8509C210.306 47.9703 209.236 49.7223 208.798 52.1069H202.52C202.763 49.4789 203.639 47.2646 205.148 45.4639C206.656 43.6633 208.554 42.3006 210.842 41.3759C213.178 40.4026 215.635 39.9159 218.215 39.9159C221.865 39.9159 224.809 40.5973 227.048 41.9599C229.286 43.2739 230.917 45.0503 231.939 47.2889C232.961 49.5276 233.472 52.0096 233.472 54.7349V65.8309C233.472 67.6316 233.691 68.9943 234.129 69.9189C234.567 70.8436 235.686 71.4033 237.487 71.5979V76.9999C235.881 76.9999 234.421 76.8053 233.107 76.4159C231.793 75.9779 230.673 75.2966 229.749 74.3719C228.873 73.3986 228.24 72.1333 227.851 70.5759C226.634 72.6199 224.955 74.3476 222.814 75.7589C220.721 77.1703 218.19 77.8759 215.222 77.8759ZM216.171 72.6929C218.604 72.6929 220.648 72.0846 222.303 70.8679C223.957 69.6026 225.198 67.9966 226.026 66.0499C226.902 64.1033 227.34 62.0836 227.34 59.9909V59.9179H218.069C216.365 59.9179 214.759 60.1126 213.251 60.5019C211.742 60.8426 210.525 61.4996 209.601 62.4729C208.676 63.3976 208.214 64.7116 208.214 66.4149C208.214 68.6049 208.992 70.2109 210.55 71.2329C212.107 72.2063 213.981 72.6929 216.171 72.6929Z" fill="white"/>
<path d="M258.99 77.8759C255.292 77.8759 252.104 77.0243 249.427 75.3209C246.751 73.6176 244.682 71.3303 243.222 68.4589C241.762 65.5876 241.032 62.3756 241.032 58.8229C241.032 55.3189 241.738 52.1313 243.149 49.2599C244.609 46.3886 246.678 44.1256 249.354 42.4709C252.031 40.7676 255.267 39.9159 259.063 39.9159C262.032 39.9159 264.66 40.5243 266.947 41.7409C269.235 42.9576 271.011 44.6609 272.276 46.8509V25.8999H278.408V76.9999H272.86L272.276 71.0139C271.108 72.7659 269.429 74.3476 267.239 75.7589C265.049 77.1703 262.3 77.8759 258.99 77.8759ZM259.647 72.5469C262.324 72.5469 264.587 71.9386 266.436 70.7219C268.286 69.4566 269.673 67.8019 270.597 65.7579C271.571 63.6653 272.057 61.3779 272.057 58.8959C272.057 56.2679 271.571 53.9319 270.597 51.8879C269.624 49.8439 268.213 48.2379 266.363 47.0699C264.514 45.8533 262.275 45.2449 259.647 45.2449C257.311 45.2449 255.219 45.8046 253.369 46.9239C251.52 48.0433 250.036 49.6249 248.916 51.6689C247.846 53.6643 247.31 56.0733 247.31 58.8959C247.31 61.7186 247.87 64.1519 248.989 66.1959C250.109 68.2399 251.593 69.8216 253.442 70.9409C255.34 72.0116 257.409 72.5469 259.647 72.5469Z" fill="white"/>
<path d="M286.944 76.9999V25.8999H293.076V76.9999H286.944Z" fill="white"/>
<path d="M317.946 77.8759C314.588 77.8759 311.546 77.0973 308.821 75.5399C306.144 73.9826 304.027 71.7926 302.47 68.9699C300.912 66.0986 300.134 62.7406 300.134 58.8959C300.134 55.0999 300.864 51.7906 302.324 48.9679C303.833 46.0966 305.925 43.8823 308.602 42.3249C311.327 40.7189 314.491 39.9159 318.092 39.9159C321.499 39.9159 324.467 40.6703 326.998 42.1789C329.529 43.6876 331.5 45.7316 332.911 48.3109C334.371 50.8416 335.101 53.6886 335.101 56.8519C335.101 57.5333 335.101 58.0686 335.101 58.4579C335.101 58.8473 335.076 59.4556 335.028 60.2829H306.193C306.339 62.6676 306.899 64.8089 307.872 66.7069C308.894 68.5563 310.257 70.0163 311.96 71.0869C313.712 72.1576 315.707 72.6929 317.946 72.6929C320.476 72.6929 322.594 72.1089 324.297 70.9409C326 69.7729 327.241 68.1913 328.02 66.1959H334.079C333.446 68.4346 332.4 70.4299 330.94 72.1819C329.48 73.9339 327.655 75.3209 325.465 76.3429C323.324 77.3649 320.817 77.8759 317.946 77.8759ZM306.266 55.5379H329.042C328.896 52.2773 327.777 49.7223 325.684 47.8729C323.591 46.0236 321.012 45.0989 317.946 45.0989C315.026 45.0989 312.422 45.9993 310.135 47.7999C307.896 49.5519 306.607 52.1313 306.266 55.5379Z" fill="white"/>
<rect x="21" y="74" width="56" height="13" rx="6.5" fill="white"/>
<rect x="21" y="74" width="30" height="13" rx="6.5" fill="#313AFB"/>
<path d="M48.8132 64.8759C43.5572 64.8759 39.0798 63.7323 35.3812 61.4449C31.6825 59.1576 28.8598 56.0429 26.9132 52.1009C24.9665 48.1103 23.9932 43.5843 23.9932 38.5229C23.9932 33.4616 24.9422 28.9356 26.8402 24.9449C28.7382 20.9543 31.5365 17.8153 35.2352 15.5279C38.9338 13.1919 43.4598 12.0239 48.8132 12.0239C54.9452 12.0239 59.9578 13.5569 63.8512 16.6229C67.7932 19.6403 70.2508 23.8986 71.2242 29.3979H60.9312C60.2985 26.6239 58.9358 24.4583 56.8432 22.9009C54.7992 21.2949 52.0738 20.4919 48.6672 20.4919C45.5525 20.4919 42.8515 21.2219 40.5642 22.6819C38.3255 24.1419 36.5978 26.2103 35.3812 28.8869C34.1645 31.5636 33.5562 34.7756 33.5562 38.5229C33.5562 42.2216 34.1645 45.4336 35.3812 48.1589C36.5978 50.8356 38.3255 52.9039 40.5642 54.3639C42.8515 55.7753 45.5525 56.4809 48.6672 56.4809C52.0738 56.4809 54.7992 55.7509 56.8432 54.2909C58.9358 52.7823 60.2985 50.7139 60.9312 48.0859H71.2242C70.2508 53.3419 67.7932 57.4543 63.8512 60.4229C59.9578 63.3916 54.9452 64.8759 48.8132 64.8759Z" fill="white"/>
</svg>
